<svg xmlns="http://www.w3.org/2000/svg" width="148.766" height="48.249" viewBox="0 0 148.766 48.249">
  <g id="Tallyup" transform="translate(-58.962 -19.378)">
    <path id="Path_110" data-name="Path 110" d="M721.486,458.848l-.242,4.143h-5.326v19.45h-4.573v-19.45h-5.555v-4.143Z" transform="translate(-603.35 -426.792)" fill="#18181b"/>
    <path id="Path_111" data-name="Path 111" d="M820.075,518.525v-1.1a7.328,7.328,0,0,1-5.3,1.8,7.9,7.9,0,0,1-6.154-2.71,10.051,10.051,0,0,1,0-13.1,7.9,7.9,0,0,1,6.154-2.71,7.326,7.326,0,0,1,5.3,1.8v-1.265h4.358v17.284Zm-.013-8.514a5.138,5.138,0,0,0-1.392-3.625,4.542,4.542,0,0,0-6.745,0,5.37,5.37,0,0,0,0,7.229,4.555,4.555,0,0,0,6.745,0A5.1,5.1,0,0,0,820.061,510.011Z" transform="translate(-689.72 -462.796)" fill="#18181b"/>
    <path id="Path_112" data-name="Path 112" d="M962.31,478.136h-4.425V453.844h4.425Z" transform="translate(-820.207 -422.488)" fill="#18181b"/>
    <path id="Path_113" data-name="Path 113" d="M1015.183,478.136h-4.425V453.844h4.425Z" transform="translate(-865.688 -422.488)" fill="#18181b"/>
    <path id="Path_114" data-name="Path 114" d="M1054.392,504.552h4.654l4.425,9.981,4.425-9.981h4.641l-11.42,25.758h-4.64l4.667-10.532Z" transform="translate(-903.223 -466.107)" fill="#18181b"/>
    <path id="Path_115" data-name="Path 115" d="M1201.8,521.419a7.809,7.809,0,0,1-2.771-2.771,7.374,7.374,0,0,1-1.029-3.833V504.552h4.425v10.263a3.221,3.221,0,0,0,6.443,0V504.552h4.425v10.263a7.341,7.341,0,0,1-1.036,3.833,7.882,7.882,0,0,1-2.771,2.771,7.65,7.65,0,0,1-7.687,0Z" transform="translate(-1026.757 -466.107)" fill="#18181b"/>
    <path id="Path_116" data-name="Path 116" d="M1332.881,500.993v1.224a7.327,7.327,0,0,1,5.3-1.8,7.9,7.9,0,0,1,6.154,2.71,10.051,10.051,0,0,1,0,13.1,7.9,7.9,0,0,1-6.154,2.71,7.327,7.327,0,0,1-5.3-1.8v9.415h-4.358V500.993Zm9.523,8.77a5.137,5.137,0,0,0-1.392-3.625,4.542,4.542,0,0,0-6.745,0,5.37,5.37,0,0,0,0,7.229,4.555,4.555,0,0,0,6.745,0A5.1,5.1,0,0,0,1342.4,509.763Z" transform="translate(-1139.034 -462.549)" fill="#18181b"/>
    <g id="Path_168" data-name="Path 168" transform="translate(-269.814 -242.485)" fill="none">
      <path d="M344.224,281.445c-.736-.823-1.327-1.549-1.99-2.212a19.019,19.019,0,0,0-5.095-3.569,3.024,3.024,0,0,1-1.708-3.024,3.08,3.08,0,0,1,2.331-2.616,3.41,3.41,0,0,1,2.451.258,24.884,24.884,0,0,1,8.591,6.826c.116.144.243.279.364.418l.182-.085c-.515-1.112-.974-2.252-1.559-3.33a17.184,17.184,0,0,0-4.034-4.869,2.866,2.866,0,0,1-1.019-3.016A2.937,2.937,0,0,1,345,263.982a3.381,3.381,0,0,1,3.226.822,24.67,24.67,0,0,1,5.583,6.987,1.088,1.088,0,0,0,.42.472c0-1.306-.023-2.613,0-3.919a2.758,2.758,0,0,1,2.315-2.619,2.872,2.872,0,0,1,3.5,2.864c.012,3.889.01,7.778.013,11.668,0,4.115.061,8.232-.017,12.346a33.367,33.367,0,0,1-.549,5.884c-.713,3.572-3.088,6-6.365,7.754a15.47,15.47,0,0,1-22.17-9.625,6.644,6.644,0,0,1-.18-1.467,2.651,2.651,0,0,1,2.222-2.6,2.746,2.746,0,0,1,3.173,1.761,5.4,5.4,0,0,0,1.8,2.585,5.149,5.149,0,0,0,5.758.417,4.988,4.988,0,0,0,2.574-5.025,5.121,5.121,0,0,0-3.958-4.2,5.83,5.83,0,0,0-5.817,1.724,3.241,3.241,0,0,1-2.021,1.232,2.7,2.7,0,0,1-2.573-.994,2.417,2.417,0,0,1-.295-2.682,10.438,10.438,0,0,1,6.439-5.555,11.65,11.65,0,0,1,5.44-.423C343.68,281.414,343.847,281.417,344.224,281.445Z" stroke="none"/>
      <path d="M 345.9031677246094 263.8627014160156 C 345.6111755371094 263.8627319335938 345.3091430664062 263.9016723632812 344.9969177246094 263.9820251464844 C 343.784423828125 264.2934265136719 343.01611328125 265.0808410644531 342.7379150390625 266.2273559570312 C 342.4537963867188 267.397705078125 342.8035583496094 268.4305114746094 343.7566223144531 269.2429809570312 C 345.4002685546875 270.6430969238281 346.7792358398438 272.2487487792969 347.7905883789062 274.111572265625 C 348.3756103515625 275.1893310546875 348.8339233398438 276.32958984375 349.3493957519531 277.4413452148438 L 349.1676635742188 277.5265197753906 C 349.046142578125 277.3874206542969 348.9191589355469 277.2522277832031 348.8034973144531 277.1084289550781 C 346.4815063476562 274.2166748046875 343.6152038574219 271.9467163085938 340.2127380371094 270.2820129394531 C 339.4218444824219 269.8952026367188 338.6062316894531 269.79931640625 337.76220703125 270.0245056152344 C 336.4714660644531 270.3680114746094 335.5816955566406 271.38671875 335.431640625 272.6403198242188 C 335.2882385253906 273.8403930664062 335.9505615234375 275.0759887695312 337.1393432617188 275.6641235351562 C 339.036865234375 276.6023559570312 340.7613525390625 277.7586669921875 342.2341918945312 279.2330322265625 C 342.8965759277344 279.8957824707031 343.4882202148438 280.6222534179688 344.2240295410156 281.4447937011719 C 343.8472900390625 281.4167175292969 343.6796569824219 281.4143676757812 343.5155334472656 281.3901062011719 C 341.6660461425781 281.1169738769531 339.8430480957031 281.2259216308594 338.0755920410156 281.8129272460938 C 335.1123962402344 282.7976684570312 332.9345703125 284.6315612792969 331.6365051269531 287.3677368164062 C 331.1917419433594 288.3047790527344 331.2839965820312 289.2223205566406 331.9314880371094 290.0500183105469 C 332.56884765625 290.8643188476562 333.4587097167969 291.156982421875 334.5047302246094 291.0437316894531 C 335.3882446289062 290.9479675292969 335.9697265625 290.4071655273438 336.5261840820312 289.8116149902344 C 338.0978698730469 288.1305236816406 340.07470703125 287.6065673828125 342.3435974121094 288.087158203125 C 344.4053344726562 288.5240173339844 345.9676208496094 290.2215270996094 346.3017272949219 292.2868041992188 C 346.61669921875 294.232421875 345.5636291503906 296.2875061035156 343.7273559570312 297.3120727539062 C 341.8578796386719 298.3546447753906 339.7156372070312 298.2096862792969 337.9696960449219 296.8947143554688 C 337.0795288085938 296.2245788574219 336.5363464355469 295.3238525390625 336.170166015625 294.309814453125 C 335.6962280273438 292.9967651367188 334.4454040527344 292.3146057128906 332.9975280761719 292.548583984375 C 331.7388000488281 292.7517700195312 330.7756042480469 293.8526000976562 330.7760009765625 295.1499633789062 C 330.7763977050781 295.6395568847656 330.8459167480469 296.137451171875 330.9557189941406 296.6165161132812 C 331.5821533203125 299.3534851074219 333.1389770507812 301.6371459960938 335.0834655761719 303.6426086425781 C 339.76953125 308.4756469726562 347.0973205566406 309.4623718261719 353.1257934570312 306.2416381835938 C 356.4031982421875 304.4905700683594 358.7779235839844 302.0599670410156 359.4910888671875 298.4875183105469 C 359.8755798339844 296.5614318847656 360.0026245117188 294.5692443847656 360.0397338867188 292.6033020019531 C 360.117919921875 288.4892578125 360.0596923828125 284.3728332519531 360.0565185546875 280.2576599121094 C 360.0538024902344 276.3682861328125 360.05615234375 272.4793395996094 360.0436706542969 268.5899658203125 C 360.0377502441406 266.6818542480469 358.4417419433594 265.3878784179688 356.5434875488281 265.7256469726562 C 355.2387390136719 265.9580993652344 354.2543640136719 267.0452270507812 354.2285461425781 268.3445739746094 C 354.2031555175781 269.6505126953125 354.2250366210938 270.9568481445312 354.2257995605469 272.2632446289062 C 353.9992065429688 272.1276550292969 353.8975830078125 271.9615783691406 353.8061218261719 271.7908325195312 C 352.3907470703125 269.1398010253906 350.5232238769531 266.8170471191406 348.2228088378906 264.8041687011719 C 347.52880859375 264.197021484375 346.7586975097656 263.8627014160156 345.9031677246094 263.8627014160156 M 345.903076171875 261.8627014160156 L 345.9031066894531 261.8627014160156 C 347.2268371582031 261.8626708984375 348.4503784179688 262.3458862304688 349.5397033691406 263.2989196777344 C 350.6716918945312 264.2893981933594 351.7083129882812 265.3544616699219 352.6443481445312 266.4874877929688 C 353.2794494628906 265.0964965820312 354.5874328613281 264.0426330566406 356.1926879882812 263.7566528320312 C 356.50830078125 263.700439453125 356.8274841308594 263.6719665527344 357.1415100097656 263.6719360351562 C 358.4648132324219 263.6719360351562 359.6953735351562 264.1686401367188 360.6066284179688 265.0706176757812 C 361.5291137695312 265.9837341308594 362.0394592285156 267.2313842773438 362.0436706542969 268.583740234375 C 362.052978515625 271.48486328125 362.0540466308594 274.4331359863281 362.0550842285156 277.2843017578125 C 362.0554504394531 278.2749328613281 362.0558166503906 279.2655944824219 362.0565185546875 280.2562561035156 C 362.0574340820312 281.4356384277344 362.0629577636719 282.636962890625 362.0683288574219 283.7987060546875 C 362.0816955566406 286.6934204101562 362.0955200195312 289.6866760253906 362.0393676757812 292.6412963867188 C 361.9924621582031 295.1256713867188 361.8059692382812 297.1078491210938 361.452392578125 298.8790283203125 C 361.0439758300781 300.9248962402344 360.1474914550781 302.765625 358.7877807617188 304.3500671386719 C 357.5784912109375 305.7592468261719 356.0347290039062 306.9549865722656 354.0682983398438 308.0056457519531 C 351.4896545410156 309.38330078125 348.6056518554688 310.1114807128906 345.7279968261719 310.1114807128906 C 343.4773254394531 310.1114807128906 341.2944030761719 309.6811828613281 339.2398376464844 308.8325500488281 C 337.1257934570312 307.9593505859375 335.2442626953125 306.6816101074219 333.6475830078125 305.0348205566406 C 331.1664733886719 302.4759216308594 329.6482543945312 299.8682250976562 329.0061340332031 297.062744140625 C 328.8539733886719 296.3988342285156 328.7764892578125 295.7556457519531 328.7760009765625 295.1515808105469 C 328.7756652832031 294.0475158691406 329.1742553710938 292.9764709472656 329.8983764648438 292.1346740722656 C 330.0955200195312 291.905517578125 330.3131408691406 291.6974792480469 330.547607421875 291.5126342773438 C 330.4822387695312 291.4385681152344 330.4185180664062 291.3619079589844 330.3565673828125 291.2827453613281 C 329.2520446777344 289.8708190917969 329.0601501464844 288.1314392089844 329.8297119140625 286.5101318359375 C 331.3485717773438 283.3085021972656 333.9107360839844 281.0894470214844 337.4448547363281 279.9149780273438 C 338.0924682617188 279.6999206542969 338.7572937011719 279.536376953125 339.4348754882812 279.425048828125 C 338.5038452148438 278.6998596191406 337.4512023925781 278.0494689941406 336.2528991699219 277.4569396972656 C 334.3263549804688 276.5038452148438 333.1984252929688 274.472900390625 333.4457702636719 272.4030151367188 C 333.693603515625 270.3326110839844 335.1859741210938 268.6405029296875 337.2478332519531 268.0917663574219 C 337.7127990722656 267.9677734375 338.1864318847656 267.90478515625 338.6545715332031 267.9047546386719 C 339.3973083496094 267.9047241210938 340.1326599121094 268.0614929199219 340.8441162109375 268.3711242675781 C 340.5913696289062 267.5401000976562 340.5745544433594 266.6609802246094 340.7943725585938 265.7555236816406 C 341.2481079101562 263.8856201171875 342.5985412597656 262.5330810546875 344.4994201660156 262.0448913574219 C 344.9687805175781 261.9241027832031 345.4413757324219 261.8627319335938 345.903076171875 261.8627014160156 Z M 341.1558532714844 296.0000610351562 C 341.6985473632812 296.0000610351562 342.2359924316406 295.8537902832031 342.7532348632812 295.5653381347656 C 343.84423828125 294.9566040039062 344.5064392089844 293.7120971679688 344.3274230957031 292.6064147949219 C 344.1215515136719 291.3338623046875 343.15771484375 290.3040771484375 341.9290161132812 290.0437316894531 C 341.5312805175781 289.9594421386719 341.1493225097656 289.9167175292969 340.7937622070312 289.9167175292969 C 339.6831359863281 289.9167175292969 338.7913208007812 290.3173217773438 337.9871520996094 291.177490234375 C 337.7692260742188 291.4107055664062 337.47607421875 291.7244262695312 337.0935974121094 292.0287780761719 C 337.5083312988281 292.4850158691406 337.8331909179688 293.0263366699219 338.0513610839844 293.6307678222656 C 338.3294677734375 294.4009094238281 338.6857604980469 294.9303894042969 339.1725769042969 295.296875 C 339.7834777832031 295.7569885253906 340.4691467285156 296.0000610351562 341.1558532714844 296.0000610351562 Z" stroke="none" fill="#18181b"/>
    </g>
    <circle id="Ellipse_32" data-name="Ellipse 32" cx="10.157" cy="10.157" r="10.157" transform="translate(65.664 41.367)" fill="#18181b"/>
    <path id="Path_169" data-name="Path 169" d="M362.011,328.891a2.409,2.409,0,0,1,2.052,1.04l1.659-1.546a4.394,4.394,0,0,0-2.952-1.687v-1.209h-2.193v1.293a5.086,5.086,0,0,0,0,9.839V337.8h2.193v-1.1a4.19,4.19,0,0,0,2.952-1.687l-1.687-1.574a2.406,2.406,0,0,1-2.052,1.04,2.8,2.8,0,0,1,.028-5.595Z" transform="translate(-285.657 -280.029)" fill="#fff"/>
  </g>
</svg>
